<svg width="61" height="59" viewBox="0 0 61 59" fill="none" xmlns="http://www.w3.org/2000/svg">
<path d="M56.0044 11.7115H48.9814V11.5095C48.9814 7.87665 46.026 4.92118 42.3932 4.92118C38.7603 4.92118 35.8049 7.87665 35.8049 11.5095V11.7115H27.5571C24.8414 11.7115 22.6321 13.9209 22.6321 16.6365V22.2009H15.2458C13.4838 22.2009 11.9176 23.2562 11.2558 24.8893C11.2462 24.9133 11.2373 24.9375 11.2291 24.962L6.96808 37.8689C6.9294 37.8919 6.88007 37.9191 6.81866 37.9498C6.57503 38.0714 6.11929 38.2568 5.33507 38.4484C4.09062 38.7499 2.9839 39.4616 2.19323 40.4688C1.40255 41.4759 0.973964 42.72 0.976513 44.0004V50.0987C0.976513 52.1406 2.63765 53.8018 4.67952 53.8018L9.90374 53.802C10.4553 56.7562 13.0514 58.9999 16.1632 58.9999C19.2749 58.9999 21.8709 56.7561 22.4226 53.8021L40.8472 53.8024C41.3989 56.7564 43.9949 58.9999 47.1066 58.9999C50.2181 58.9999 52.8141 56.7565 53.3659 53.8026L56.6836 53.8027C59.2232 53.8027 60.9294 52.0963 60.9294 49.5568V19.08C60.9294 12.4295 57.4851 11.7115 56.0044 11.7115ZM38.1486 11.5095C38.1486 9.169 40.0527 7.26493 42.3932 7.26493C44.7336 7.26493 46.6377 9.169 46.6377 11.5095V11.7115H38.1486V11.5095ZM13.4413 25.7379C13.591 25.3833 13.8422 25.0809 14.1632 24.8686C14.4842 24.6563 14.8609 24.5436 15.2457 24.5447H22.6319V37.8266H9.45022L13.4413 25.7379ZM16.1632 56.6562C13.9435 56.6562 12.1377 54.8504 12.1377 52.6307C12.1377 52.6033 12.1392 52.5762 12.1398 52.5488C12.1406 52.5069 12.1408 52.465 12.143 52.4234C12.1433 52.4168 12.1441 52.4104 12.1445 52.4038C12.2626 50.2894 14.02 48.6052 16.1632 48.6052C18.1026 48.6052 19.7262 49.9841 20.105 51.8129L20.1067 51.82C20.1194 51.882 20.1305 51.9445 20.1403 52.0076L20.1422 52.018C20.1492 52.0638 20.1544 52.1101 20.1598 52.1564C20.1622 52.1775 20.1656 52.1983 20.1677 52.2194C20.1714 52.2554 20.1734 52.2921 20.176 52.3285C20.1784 52.3602 20.1817 52.3916 20.1833 52.4235C20.185 52.4563 20.185 52.4896 20.1858 52.5226C20.1867 52.5586 20.1885 52.5944 20.1885 52.6306C20.1887 54.8504 18.3828 56.6562 16.1632 56.6562ZM47.1066 56.6562C44.8869 56.6562 43.081 54.8504 43.081 52.6307C43.081 52.5783 43.083 52.5263 43.085 52.4743C43.0856 52.4576 43.0855 52.4405 43.0863 52.4238C43.0883 52.3852 43.0921 52.3471 43.0951 52.3088C43.0975 52.2791 43.0989 52.2491 43.1019 52.2196C43.1032 52.207 43.1053 52.1947 43.1066 52.1823C43.1202 52.06 43.1386 51.939 43.163 51.8203C43.1637 51.8168 43.1646 51.8134 43.1654 51.8099C43.5455 49.9826 45.168 48.6053 47.1066 48.6053C47.6614 48.6053 48.1905 48.7181 48.6719 48.9222C50.1163 49.5341 51.1319 50.966 51.1319 52.6308C51.1319 54.8504 49.3262 56.6562 47.1066 56.6562ZM56.6836 51.4588L53.3678 51.4587C53.3639 51.4379 53.3589 51.4175 53.3548 51.3968C53.3272 51.2591 53.2954 51.1222 53.2595 50.9864C53.2435 50.927 53.2267 50.8679 53.209 50.809C53.198 50.7724 53.1872 50.7358 53.1757 50.6994C53.156 50.6382 53.1353 50.5772 53.1137 50.5166C53.1022 50.4842 53.0913 50.4513 53.0793 50.4191C53.0531 50.3492 53.0257 50.2799 52.997 50.211C52.988 50.1892 52.9798 50.1669 52.9705 50.1452C52.9318 50.0542 52.891 49.9641 52.8482 49.875C52.8428 49.8639 52.8369 49.8532 52.8315 49.8422C52.7941 49.7656 52.7552 49.6897 52.7148 49.6146C52.6999 49.5871 52.6841 49.5602 52.6689 49.5329C52.6367 49.4749 52.6036 49.4175 52.5696 49.3606C52.5511 49.3297 52.5319 49.2995 52.5128 49.2689C52.4605 49.1846 52.4061 49.1016 52.3495 49.0201C52.2939 48.9395 52.2365 48.8602 52.1773 48.7821C52.1403 48.7337 52.1026 48.6858 52.0643 48.6385C52.0414 48.6102 52.0189 48.5819 51.9956 48.554C51.9539 48.5043 51.9114 48.4553 51.8682 48.4069C51.8469 48.383 51.8262 48.3585 51.8045 48.3349C51.7507 48.2763 51.6958 48.2188 51.6398 48.1623C51.6278 48.1501 51.6163 48.1374 51.6041 48.1253C51.535 48.0563 51.4644 47.989 51.3922 47.9233C51.3769 47.9092 51.3608 47.896 51.3452 47.882C51.2887 47.8315 51.2316 47.7815 51.1732 47.7329C51.1476 47.7116 51.1213 47.6912 51.0954 47.6704C51.046 47.6304 50.996 47.5911 50.9455 47.5525C50.9157 47.53 50.8856 47.5081 50.8555 47.4861C50.7281 47.3927 50.5972 47.3043 50.463 47.221C50.4302 47.2004 50.3973 47.1802 50.364 47.1602C50.3121 47.1292 50.2596 47.0993 50.2068 47.0698C50.1743 47.0516 50.1419 47.0331 50.1091 47.0155C50.0517 46.9847 49.9935 46.9553 49.935 46.9262C49.9059 46.9117 49.8772 46.8966 49.8479 46.8826C49.7713 46.8461 49.694 46.8111 49.616 46.7776C49.6041 46.7725 49.5923 46.7667 49.5803 46.7616C49.4896 46.7233 49.398 46.6871 49.3056 46.6531C49.2792 46.6433 49.2524 46.6348 49.2258 46.6254C49.1594 46.602 49.093 46.5789 49.0257 46.5575C48.9905 46.5464 48.9548 46.5363 48.9193 46.5258C48.8597 46.5081 48.7999 46.4906 48.7396 46.4746C48.7009 46.4643 48.662 46.4549 48.623 46.4453C48.5245 46.421 48.4254 46.3992 48.3259 46.3798C48.2669 46.3684 48.2078 46.3578 48.1485 46.348C48.1078 46.3413 48.0671 46.3345 48.0262 46.3287C47.9646 46.3199 47.9028 46.3121 47.841 46.3051C47.8017 46.3006 47.7626 46.2956 47.7231 46.2919C47.6545 46.2856 47.5859 46.2803 47.5172 46.2762C47.4835 46.2741 47.4503 46.271 47.4165 46.2694C47.3132 46.2643 47.2098 46.2617 47.1064 46.2615C47.0025 46.2615 46.8991 46.2645 46.7964 46.2694C46.7626 46.271 46.7292 46.2741 46.6956 46.2762C46.6268 46.2806 46.5581 46.2853 46.4899 46.2919C46.4503 46.2958 46.4112 46.3007 46.3718 46.3052C46.3099 46.3124 46.2482 46.3199 46.1869 46.3288C46.1459 46.3348 46.105 46.3415 46.0642 46.3483C45.9641 46.3649 45.8644 46.3838 45.7651 46.4049C45.7068 46.4175 45.6486 46.431 45.5906 46.4453C45.5512 46.4549 45.512 46.4645 45.473 46.4748C45.4132 46.4906 45.354 46.5079 45.295 46.5254C45.2589 46.5362 45.2225 46.5464 45.1867 46.5578C45.121 46.5788 45.0556 46.601 44.9906 46.6242C44.9627 46.6341 44.9345 46.6431 44.9067 46.6534C44.8146 46.6874 44.7234 46.7233 44.6334 46.7613C44.6185 46.7677 44.604 46.7747 44.5891 46.7812C44.514 46.8136 44.4395 46.847 44.3659 46.8822C44.3348 46.897 44.3045 46.913 44.2737 46.9283C44.2172 46.9566 44.1607 46.9849 44.1051 47.0147C44.0708 47.0331 44.0369 47.0524 44.003 47.0715C43.9518 47.1001 43.901 47.1293 43.8506 47.1592C43.7321 47.2304 43.6158 47.3051 43.5019 47.3833C43.4545 47.416 43.4076 47.4494 43.3611 47.4835C43.3291 47.5068 43.297 47.53 43.2655 47.5539C43.2173 47.5904 43.1701 47.6281 43.123 47.6659C43.0946 47.6888 43.0659 47.711 43.0379 47.7343C42.9838 47.7795 42.9308 47.826 42.8782 47.8727C42.8586 47.8901 42.8386 47.9069 42.8193 47.9244C42.7481 47.9892 42.6785 48.0556 42.6104 48.1235C42.5932 48.1406 42.5769 48.1587 42.5598 48.176C42.5093 48.2276 42.4591 48.2795 42.4103 48.3328C42.3859 48.3595 42.3623 48.387 42.3384 48.414C42.2982 48.4594 42.2583 48.5049 42.2194 48.5514C42.1941 48.5817 42.1694 48.6126 42.1447 48.6434C42.1086 48.6881 42.073 48.7331 42.0381 48.7788C41.9544 48.889 41.8742 49.0018 41.7975 49.1169C41.7655 49.165 41.7346 49.2137 41.704 49.2627C41.683 49.2962 41.6618 49.3296 41.6415 49.3635C41.6099 49.4161 41.5796 49.4695 41.5496 49.5232C41.5321 49.5545 41.5139 49.5854 41.4968 49.6172C41.4607 49.684 41.4264 49.752 41.3927 49.8202C41.3832 49.8394 41.373 49.858 41.3638 49.8774C41.3216 49.965 41.2815 50.0536 41.2434 50.143C41.2318 50.1703 41.2214 50.1982 41.2102 50.2258C41.1843 50.2889 41.1587 50.3523 41.1348 50.4165C41.1214 50.4524 41.1094 50.4887 41.0966 50.5247C41.0764 50.5817 41.057 50.6389 41.0384 50.6964C41.0258 50.7355 41.0142 50.7751 41.0024 50.8146C40.9736 50.911 40.9471 51.008 40.923 51.1056C40.9091 51.162 40.8961 51.2187 40.8837 51.2758C40.8746 51.3171 40.8657 51.3585 40.8575 51.4001C40.8537 51.4198 40.8489 51.4391 40.8452 51.4588L22.4241 51.4585C22.4202 51.4382 22.4154 51.4181 22.4114 51.3979C22.4035 51.3578 22.3949 51.3181 22.3863 51.2783C22.3523 51.1215 22.3122 50.9659 22.2662 50.8122C22.2548 50.774 22.2435 50.7358 22.2314 50.6978C22.2124 50.6389 22.1926 50.5804 22.1719 50.5221C22.1596 50.4872 22.1477 50.452 22.1348 50.4174C22.1104 50.3522 22.0848 50.2875 22.0581 50.2232C22.0473 50.1967 22.0372 50.1697 22.026 50.1435C21.9878 50.0538 21.9476 49.965 21.9053 49.8771C21.8967 49.8594 21.8873 49.8423 21.8787 49.8247C21.8444 49.7548 21.8089 49.6855 21.772 49.6169C21.7554 49.5859 21.7376 49.5556 21.7203 49.525C21.6899 49.4707 21.6593 49.4166 21.6273 49.3634C21.6071 49.3297 21.5862 49.2968 21.5654 49.2636C21.5347 49.2143 21.5034 49.1654 21.4713 49.1169C21.3946 49.0019 21.3144 48.8893 21.2309 48.7792C21.196 48.7335 21.1604 48.6885 21.1243 48.6438C21.0995 48.613 21.0748 48.582 21.0494 48.5516C21.0105 48.5055 20.971 48.4598 20.9309 48.4147C20.9067 48.3876 20.883 48.3599 20.8585 48.3331C20.8103 48.2803 20.7606 48.2289 20.7105 48.1778C20.693 48.1599 20.6762 48.1413 20.6584 48.1238C20.5904 48.0559 20.5209 47.9897 20.4499 47.925C20.4302 47.907 20.4096 47.89 20.3897 47.8722C20.3376 47.8255 20.2848 47.7798 20.2312 47.7349C20.2029 47.7114 20.1738 47.6888 20.1451 47.6657C20.0985 47.6282 20.0516 47.5908 20.0038 47.5546C19.972 47.5304 19.9397 47.5071 19.9075 47.4836C19.8612 47.4497 19.8145 47.4165 19.7674 47.3838C19.6868 47.3285 19.6049 47.2749 19.5219 47.2232C19.4875 47.2016 19.4528 47.1803 19.418 47.1594C19.3679 47.1296 19.3174 47.1006 19.2666 47.0722C19.2323 47.053 19.1982 47.0336 19.1635 47.0151C19.1082 46.9856 19.0525 46.957 18.9963 46.9293C18.9651 46.9137 18.9343 46.8975 18.9028 46.8824C18.8301 46.8478 18.7567 46.8146 18.6827 46.7827C18.6669 46.7758 18.6514 46.7683 18.6355 46.7615C18.5454 46.7234 18.4544 46.6875 18.3626 46.6536C18.3343 46.6432 18.3056 46.6341 18.2771 46.624C18.2127 46.601 18.1478 46.579 18.0826 46.558C18.0465 46.5465 18.0098 46.5362 17.9734 46.5254C17.9146 46.5078 17.8556 46.491 17.7963 46.4751C17.7571 46.4646 17.7176 46.455 17.6781 46.4454C17.5217 46.4067 17.3639 46.3743 17.2049 46.3484C17.1641 46.3417 17.1233 46.3349 17.0822 46.3289C17.0206 46.3202 16.9589 46.3123 16.8971 46.3054C16.8579 46.3008 16.8187 46.2959 16.7792 46.292C16.7107 46.2857 16.6421 46.2805 16.5734 46.2763C16.5397 46.2742 16.5064 46.2711 16.4727 46.2695C16.3694 46.2644 16.266 46.2618 16.1626 46.2617C16.0587 46.2617 15.9554 46.2646 15.8525 46.2695C15.8188 46.2711 15.7854 46.2742 15.7517 46.2763C15.683 46.2808 15.6143 46.2854 15.5461 46.292C15.5065 46.2959 15.4672 46.3008 15.4278 46.3054C15.3662 46.3123 15.3046 46.3202 15.2432 46.3289C15.2019 46.3349 15.161 46.3417 15.1201 46.3484C15.02 46.3648 14.9203 46.3837 14.8212 46.405C14.763 46.4175 14.7053 46.431 14.6476 46.4452C14.6079 46.4549 14.568 46.4646 14.5287 46.4751C14.4698 46.4909 14.4112 46.5076 14.3529 46.5251C14.3161 46.536 14.2791 46.5465 14.2425 46.558C14.178 46.5784 14.1143 46.6007 14.0507 46.6231C14.0212 46.6334 13.9916 46.6429 13.9624 46.6536C13.8708 46.6875 13.7801 46.7231 13.6905 46.761C13.6724 46.7687 13.6547 46.7773 13.6366 46.7851C13.565 46.8162 13.4938 46.8481 13.4235 46.8817C13.3907 46.8974 13.3585 46.9143 13.326 46.9306C13.2712 46.9577 13.2168 46.9855 13.1628 47.0142C13.1272 47.0333 13.0922 47.0534 13.0569 47.0732C13.0072 47.1011 12.9576 47.1292 12.9088 47.1585C12.8252 47.2086 12.7427 47.2604 12.6614 47.3141C12.6262 47.3373 12.5913 47.3608 12.5566 47.3847C12.5107 47.4163 12.4655 47.4488 12.4203 47.4816C12.3869 47.506 12.3533 47.5302 12.3204 47.5553C12.2743 47.5903 12.2291 47.6263 12.184 47.6625C12.1536 47.6869 12.1229 47.7107 12.0932 47.7356C12.0424 47.7778 11.993 47.8214 11.9436 47.8651C11.9207 47.8854 11.8972 47.9051 11.8745 47.9257C11.8043 47.9898 11.7355 48.0554 11.6681 48.1225C11.6473 48.1433 11.6273 48.1651 11.6067 48.1862C11.56 48.2342 11.5134 48.2822 11.4682 48.3315C11.4418 48.3602 11.4165 48.3899 11.3907 48.4191C11.3525 48.4623 11.3144 48.5056 11.2775 48.5499C11.2508 48.5817 11.2248 48.6143 11.1988 48.6468C11.1641 48.6897 11.13 48.7331 11.0965 48.777C11.0376 48.8544 10.9804 48.9332 10.925 49.0132C10.9007 49.0482 10.8767 49.0835 10.8531 49.1189C10.8223 49.1653 10.7925 49.2123 10.7628 49.2594C10.7408 49.2946 10.7187 49.3295 10.6973 49.3651C10.667 49.4156 10.638 49.467 10.6091 49.5183C10.5903 49.5517 10.571 49.5847 10.5527 49.6185C10.519 49.6817 10.4863 49.7454 10.4546 49.8097C10.4432 49.8327 10.431 49.8552 10.4198 49.8784C10.3781 49.9651 10.3384 50.0529 10.3005 50.1417C10.2876 50.172 10.2762 50.2028 10.2637 50.2333C10.2391 50.2936 10.2146 50.354 10.1919 50.4151C10.178 50.4525 10.1653 50.4904 10.1521 50.5281C10.1326 50.5835 10.1134 50.639 10.0955 50.695C10.0826 50.7352 10.0706 50.7757 10.0585 50.8163C10.0423 50.871 10.0264 50.9258 10.0116 50.9811C9.98547 51.0781 9.96183 51.1757 9.94065 51.2739C9.93151 51.3161 9.92237 51.3581 9.91405 51.4007C9.9103 51.4199 9.90561 51.4389 9.90198 51.4581H4.67952C3.92999 51.4581 3.32026 50.8484 3.32026 50.0987V44.0004C3.31869 43.2451 3.57146 42.5113 4.03784 41.9171C4.50422 41.323 5.15705 40.9032 5.89112 40.7254C6.55897 40.5621 7.13261 40.376 7.60101 40.1705H50.1626C50.8097 40.1705 51.3344 39.6458 51.3344 38.9986C51.3344 38.3515 50.8097 37.8267 50.1626 37.8267H24.9758V16.6365C24.9758 15.2133 26.1339 14.0552 27.5571 14.0552H56.0042C58.2503 14.0552 58.5855 17.2034 58.5855 19.08V49.5567C58.5855 51.2118 57.3939 51.4588 56.6836 51.4588Z" fill="#F1CDB3"/>
<path d="M51.4371 23.8147C51.4372 22.2763 50.3567 20.9863 48.9149 20.6615C48.9226 20.5806 48.9287 20.4992 48.9311 20.4169C48.9579 19.4633 48.6017 18.5567 47.9282 17.864C47.2432 17.1596 46.2866 16.7557 45.3034 16.7557C44.1154 16.7557 43.0573 17.3338 42.3948 18.2239C41.7328 17.3338 40.6738 16.7557 39.4831 16.7557C38.5086 16.7557 37.5586 17.1544 36.8767 17.8498C36.1995 18.5402 35.8367 19.4483 35.8552 20.4064C35.8568 20.4923 35.8627 20.5773 35.8703 20.6618C34.4291 20.987 33.3492 22.2766 33.3492 23.8147C33.3492 25.1163 34.1229 26.2399 35.2341 26.7519C34.4513 27.7206 33.9945 28.9464 33.9945 30.2423C33.9945 33.3028 36.4843 35.7927 39.5448 35.7927C40.5529 35.7927 41.537 35.5172 42.3932 35.0051C43.254 35.5202 44.2384 35.7923 45.2415 35.7927C48.302 35.7927 50.7919 33.3028 50.7919 30.2423C50.7919 28.9462 50.3351 27.7206 49.5523 26.7519C50.6636 26.2399 51.4371 25.1163 51.4371 23.8147ZM45.3034 19.0996C45.6574 19.0996 46.0016 19.2448 46.2478 19.4979C46.4762 19.7328 46.597 20.0357 46.5883 20.3508C46.568 21.0692 45.9856 21.6602 45.2898 21.6682C45.1034 21.668 44.9191 21.6279 44.7495 21.5505C44.7285 21.5408 44.7079 21.5304 44.6868 21.5209C44.58 21.4646 44.4823 21.3927 44.3966 21.3077C44.1518 21.0648 44.0177 20.7384 44.0191 20.3885C44.022 19.6778 44.5982 19.0996 45.3034 19.0996ZM38.5498 19.491C38.6711 19.3665 38.8163 19.2677 38.9766 19.2005C39.1369 19.1332 39.3091 19.0988 39.4829 19.0994C40.1903 19.0994 40.7664 19.6762 40.7672 20.3851C40.7681 20.5579 40.7343 20.7291 40.6678 20.8885C40.6013 21.048 40.5035 21.1925 40.3801 21.3135C40.2964 21.3959 40.2013 21.466 40.0978 21.5217C40.0595 21.5391 40.0221 21.5577 39.9843 21.5758C39.8315 21.6389 39.6675 21.6704 39.5023 21.6683C38.7969 21.6567 38.212 21.0704 38.1983 20.3613C38.192 20.0374 38.3169 19.7285 38.5498 19.491ZM35.693 23.8148C35.6929 23.3245 36.0918 22.9257 36.5818 22.9257C37.0722 22.9257 37.4709 23.3245 37.4709 23.8148C37.4709 23.9155 37.4534 24.0118 37.4224 24.1022C37.3931 24.1611 37.3649 24.2207 37.3377 24.2808C37.1809 24.5341 36.9012 24.7038 36.582 24.7038C36.0918 24.7038 35.693 24.305 35.693 23.8148ZM45.2415 33.4492C44.4765 33.4489 43.7368 33.175 43.1561 32.6769C42.9438 32.4945 42.6731 32.3943 42.3932 32.3946C42.1133 32.3944 41.8426 32.4946 41.6303 32.6769C41.0496 33.175 40.3099 33.4489 39.5448 33.4492C37.7767 33.4492 36.3382 32.0107 36.3382 30.2426C36.3382 28.9023 37.1833 27.6919 38.4409 27.2307C38.6472 27.1551 38.8281 27.023 38.9629 26.8495C39.0977 26.676 39.181 26.4681 39.2033 26.2495C39.2362 25.9273 39.3176 25.6118 39.4447 25.3139C39.4865 25.2346 39.5256 25.1537 39.5608 25.0707C39.8716 24.4851 40.3571 24.0108 40.9498 23.7136C41.0008 23.6912 41.0511 23.6676 41.1011 23.6428C41.5085 23.4648 41.9485 23.3731 42.3932 23.3737C42.8513 23.3737 43.2875 23.4692 43.6828 23.6417C43.7327 23.6665 43.7831 23.6899 43.8341 23.7123C44.4279 24.0094 44.9143 24.4843 45.2256 25.0707C45.2608 25.1537 45.2999 25.2346 45.3416 25.3139C45.4688 25.6118 45.5502 25.9273 45.583 26.2495C45.6053 26.4681 45.6886 26.676 45.8235 26.8495C45.9583 27.023 46.1391 27.1551 46.3454 27.2307C47.6031 27.692 48.4481 28.9023 48.4481 30.2426C48.4481 32.0106 47.0097 33.4492 45.2415 33.4492ZM48.2045 24.7038C47.8853 24.7038 47.6056 24.5341 47.4488 24.2808C47.4216 24.2208 47.3933 24.1612 47.364 24.1022C47.3321 24.0097 47.3157 23.9126 47.3155 23.8148C47.3155 23.3245 47.7143 22.9257 48.2046 22.9257C48.6948 22.9257 49.0936 23.3245 49.0936 23.8148C49.0935 24.3049 48.6947 24.7038 48.2045 24.7038Z" fill="#F1CDB3"/>
<path d="M56.0193 38.7758C56.0043 38.7007 55.9819 38.6273 55.9526 38.5566C55.9234 38.4857 55.8873 38.4178 55.8448 38.3539C55.8026 38.2897 55.7539 38.23 55.6995 38.1758C55.6452 38.1214 55.5856 38.0727 55.5214 38.0305C55.3933 37.9457 55.25 37.8864 55.0995 37.8559C54.9487 37.8254 54.7933 37.8254 54.6425 37.8559C54.5675 37.8712 54.4936 37.8934 54.4221 37.9227C54.3518 37.952 54.2839 37.9884 54.2206 38.0305C54.1561 38.0727 54.0964 38.1219 54.0425 38.1758C53.9884 38.2297 53.9392 38.2895 53.896 38.3539C53.8538 38.4172 53.8173 38.4852 53.7893 38.5566C53.76 38.627 53.7366 38.7008 53.7225 38.7758C53.7073 38.8508 53.6991 38.9281 53.6991 39.0043C53.6991 39.0803 53.7073 39.1578 53.7225 39.234C53.7366 39.3078 53.76 39.3816 53.7893 39.4531C53.8186 39.5234 53.855 39.5914 53.8971 39.6547C53.9392 39.7191 53.9884 39.7789 54.0425 39.8328C54.0964 39.8867 54.1561 39.9359 54.2206 39.9793C54.2839 40.0215 54.3518 40.0566 54.4221 40.0859C54.4936 40.1152 54.5675 40.1387 54.6425 40.1527C54.7176 40.168 54.7949 40.1762 54.871 40.1762C54.9471 40.1762 55.0246 40.168 55.0995 40.1527C55.1745 40.1387 55.2483 40.1152 55.3186 40.0859C55.3901 40.0566 55.4581 40.0215 55.5214 39.9793C55.5859 39.9359 55.6457 39.8867 55.6995 39.8328C55.7534 39.7789 55.8026 39.7191 55.8448 39.6547C55.8869 39.5914 55.9233 39.5234 55.9526 39.4531C55.9819 39.3816 56.0041 39.3078 56.0193 39.234C56.0346 39.1578 56.0427 39.0803 56.0427 39.0043C56.0427 38.9281 56.0346 38.8508 56.0193 38.7758Z" fill="#F1CDB3"/>
<path d="M42.3932 -1C41.7461 -1 41.2213 -0.475352 41.2213 0.171875V2.13359C41.2213 2.78082 41.7461 3.30547 42.3932 3.30547C43.0404 3.30547 43.565 2.7807 43.565 2.13359V0.171875C43.565 -0.475352 43.0404 -1 42.3932 -1Z" fill="#F1CDB3"/>
<path d="M37.4562 3.55659L35.8205 2.27234C35.6995 2.1773 35.5609 2.10703 35.4127 2.06555C35.2645 2.02407 35.1096 2.01218 34.9568 2.03057C34.804 2.04896 34.6563 2.09727 34.5222 2.17273C34.3881 2.24819 34.2701 2.34934 34.1751 2.47038C33.7755 2.97944 33.8642 3.71609 34.3731 4.11569L36.0088 5.39995C36.2149 5.56221 36.4695 5.65035 36.7318 5.65015C36.9095 5.65039 37.0849 5.61017 37.2447 5.53253C37.4046 5.45488 37.5446 5.34186 37.6543 5.20202C38.054 4.69284 37.9653 3.9562 37.4562 3.55659Z" fill="#F1CDB3"/>
<path d="M50.6113 2.47021C50.2117 1.96115 49.4752 1.87244 48.9659 2.27216L47.3302 3.55642C46.8211 3.95603 46.7324 4.69267 47.1321 5.20185C47.2417 5.34177 47.3818 5.45487 47.5416 5.53254C47.7015 5.61021 47.8769 5.65042 48.0546 5.6501C48.3169 5.65028 48.5716 5.56214 48.7776 5.3999L50.4133 4.11564C50.9224 3.71603 51.0111 2.97939 50.6113 2.47021Z" fill="#F1CDB3"/>
</svg>
